<svg width="156" height="35" viewBox="0 0 156 35" fill="none" xmlns="http://www.w3.org/2000/svg">
<path d="M2.29 34.622C1.922 34.622 1.61533 34.4227 1.37 34.024C1.186 33.84 0.986667 33.5487 0.772 33.15C0.557333 32.7513 0.480667 32.1073 0.542 31.218C0.634 30.298 0.971334 28.964 1.554 27.216C1.86067 26.0507 2.106 25.2073 2.29 24.686C2.474 24.134 2.566 23.7353 2.566 23.49C2.566 23.1527 2.59667 22.8767 2.658 22.662C2.75 22.4167 2.796 22.1867 2.796 21.972C2.98 21.972 3.164 21.8033 3.348 21.466C3.532 21.1287 3.68533 20.6687 3.808 20.086C3.93067 19.5647 4.038 19.1507 4.13 18.844C4.25267 18.5067 4.314 18.2767 4.314 18.154C4.46733 17.9087 4.62067 17.5253 4.774 17.004C4.958 16.4827 5.234 15.854 5.602 15.118C5.84733 14.198 6.12333 13.2473 6.43 12.266C6.73667 11.254 7.04333 10.3187 7.35 9.46C7.68733 8.57066 7.96333 7.88066 8.178 7.39C8.51533 6.43933 8.776 5.78 8.96 5.412C9.144 5.01333 9.144 4.75267 8.96 4.63C8.74533 4.47667 8.638 4.09333 8.638 3.48C8.66867 2.836 8.96 2.284 9.512 1.824C9.84933 1.42533 10.2787 1.14933 10.8 0.995999C11.3213 0.811999 11.9193 0.72 12.594 0.72C13.2687 0.72 13.974 0.750666 14.71 0.811998C15.262 0.842665 15.8447 0.857998 16.458 0.857998C17.102 0.857998 17.5007 0.857998 17.654 0.857998C17.93 0.980665 18.2673 1.11866 18.666 1.272C19.0647 1.42533 19.4173 1.57866 19.724 1.732C20.0613 1.85466 20.23 1.962 20.23 2.054C20.23 2.238 20.2913 2.36067 20.414 2.422C20.5673 2.45267 20.7207 2.48333 20.874 2.514C21.0887 2.514 21.4413 2.71333 21.932 3.112C22.4227 3.48 22.9133 3.94 23.404 4.492C23.9253 5.01333 24.2933 5.53467 24.508 6.056C24.7533 6.57733 24.9527 7.068 25.106 7.528C25.29 7.988 25.3053 8.64733 25.152 9.506C25.1213 9.966 25.0447 10.426 24.922 10.886C24.83 11.346 24.7227 11.6527 24.6 11.806C24.416 11.9287 24.2473 12.082 24.094 12.266C23.9407 12.45 23.864 12.6187 23.864 12.772C23.864 12.8947 23.7413 13.2013 23.496 13.692C23.2507 14.152 22.944 14.6887 22.576 15.302C22.208 15.8847 21.8093 16.4673 21.38 17.05C20.9507 17.6327 20.552 18.0927 20.184 18.43C19.7853 18.9207 19.31 19.3807 18.758 19.81C18.2367 20.2393 17.7613 20.592 17.332 20.868C16.5347 21.236 15.6147 21.5887 14.572 21.926C13.56 22.2633 12.5787 22.5393 11.628 22.754C10.6773 22.938 9.91067 23.0147 9.328 22.984C8.43867 23.1067 7.856 23.2293 7.58 23.352C7.304 23.444 7.10467 23.7047 6.982 24.134C6.82867 24.5327 6.67533 24.9467 6.522 25.376C6.39933 25.8053 6.338 26.112 6.338 26.296C6.27667 26.4187 6.13867 26.756 5.924 27.308C5.74 27.86 5.51 28.504 5.234 29.24C4.98867 29.976 4.75867 30.712 4.544 31.448C4.32933 32.184 4.16067 32.8127 4.038 33.334C3.91533 33.7633 3.65467 34.0853 3.256 34.3C2.888 34.5147 2.566 34.622 2.29 34.622ZM8.822 19.258C8.94467 19.3807 9.34333 19.396 10.018 19.304C10.6927 19.212 11.5053 18.982 12.456 18.614C13.0693 18.3993 13.6827 18.1387 14.296 17.832C14.94 17.5253 15.5533 17.188 16.136 16.82C16.4427 16.6053 16.7647 16.3447 17.102 16.038C17.4393 15.7007 17.9147 15.1487 18.528 14.382C18.62 14.2287 18.7733 13.9373 18.988 13.508C19.2333 13.048 19.448 12.6187 19.632 12.22C19.908 11.7907 20.184 11.162 20.46 10.334C20.736 9.47533 20.7973 8.77 20.644 8.218C20.4907 7.42067 20.184 6.76133 19.724 6.24C19.264 5.688 18.6813 5.28933 17.976 5.044C17.3013 4.92133 16.734 4.84467 16.274 4.814C15.8447 4.78333 15.3693 4.814 14.848 4.906C14.3573 5.05933 14.0047 5.274 13.79 5.55C13.606 5.826 13.33 6.40867 12.962 7.298C12.7473 7.72733 12.4407 8.32533 12.042 9.092C11.6433 9.828 11.306 10.5793 11.03 11.346C10.478 13.37 9.98733 14.9187 9.558 15.992C9.15933 17.0653 8.89867 17.7707 8.776 18.108C8.80667 18.4453 8.79133 18.6907 8.73 18.844C8.66867 18.9667 8.69933 19.1047 8.822 19.258ZM24.853 31.678C24.4543 31.678 24.1323 31.6013 23.887 31.448C23.6723 31.2947 23.3963 31.08 23.059 30.804C22.4763 30.1907 22.001 29.5313 21.633 28.826C21.2957 28.1207 21.173 27.5073 21.265 26.986C21.357 26.7407 21.3877 26.5107 21.357 26.296C21.357 26.0507 21.357 25.928 21.357 25.928C21.2037 25.7747 21.1577 25.6827 21.219 25.652C21.2803 25.5907 21.3417 25.4987 21.403 25.376C21.587 25.376 21.6483 25.2073 21.587 24.87C21.5257 24.6247 21.6177 24.1033 21.863 23.306C22.139 22.478 22.507 21.696 22.967 20.96C23.151 20.6533 23.427 20.2547 23.795 19.764C24.163 19.2427 24.5617 18.7367 24.991 18.246C25.451 17.7247 25.865 17.3107 26.233 17.004C26.9997 16.36 27.705 15.8387 28.349 15.44C29.0237 15.0413 29.6983 14.7653 30.373 14.612C31.0477 14.4587 31.7377 14.382 32.443 14.382C33.179 14.382 33.777 14.6273 34.237 15.118C34.9423 15.4247 35.433 15.8387 35.709 16.36C36.0157 16.8813 36.215 17.556 36.307 18.384C36.399 19.304 36.307 20.4387 36.031 21.788C35.755 23.1067 35.0037 24.64 33.777 26.388C33.0103 27.492 32.259 28.3507 31.523 28.964C30.787 29.5773 29.9743 30.1447 29.085 30.666C28.441 31.0953 27.751 31.356 27.015 31.448C26.279 31.54 25.5583 31.6167 24.853 31.678ZM29.545 26.066C30.2197 25.4833 30.695 24.8393 30.971 24.134C31.2777 23.4287 31.5997 22.6007 31.937 21.65C32.0597 21.466 32.1363 21.1593 32.167 20.73C32.2283 20.3007 32.2437 19.8867 32.213 19.488C32.1823 19.0587 32.075 18.8133 31.891 18.752C31.615 18.5373 31.339 18.4913 31.063 18.614C30.787 18.706 30.4343 18.9053 30.005 19.212C29.085 19.9787 28.2263 20.868 27.429 21.88C26.6623 22.8613 26.1257 24.0727 25.819 25.514C25.727 26.2807 25.8037 26.8633 26.049 27.262C26.325 27.63 26.7543 27.7373 27.337 27.584C27.9503 27.4 28.6863 26.894 29.545 26.066ZM50.995 32.874C50.5964 32.966 50.1977 32.8587 49.799 32.552C49.431 32.276 49.1704 31.9693 49.017 31.632C48.833 31.1413 48.7103 30.6813 48.649 30.252C48.6183 29.792 48.5877 29.2707 48.557 28.688L48.511 27.124L46.625 28.826C45.5823 29.8073 44.601 30.5127 43.681 30.942C42.7917 31.3407 41.979 31.54 41.243 31.54C40.9057 31.4787 40.4917 31.264 40.001 30.896C39.541 30.4973 39.1117 30.068 38.713 29.608C38.345 29.1173 38.0843 28.7187 37.931 28.412C37.747 27.9827 37.6857 27.3847 37.747 26.618C37.839 25.8513 38.023 25.008 38.299 24.088C38.6057 23.168 38.9737 22.2633 39.403 21.374C39.863 20.4847 40.3843 19.718 40.967 19.074C41.979 17.5407 43.2363 16.59 44.739 16.222C46.2417 15.8233 47.5757 15.946 48.741 16.59C49.293 16.866 49.6917 16.9733 49.937 16.912C50.1823 16.8507 50.3357 16.6513 50.397 16.314C50.5197 15.8233 50.6577 15.3633 50.811 14.934C50.9643 14.5047 51.179 13.8607 51.455 13.002C52.2217 10.6713 52.881 8.84667 53.433 7.528C54.0157 6.20933 54.537 5.05933 54.997 4.078C55.3344 3.37266 55.6717 2.882 56.009 2.606C56.3463 2.33 56.6377 2.20733 56.883 2.238C57.2203 2.238 57.6343 2.36067 58.125 2.606C58.6463 2.85133 58.9837 3.18866 59.137 3.618C59.2597 3.894 59.3057 4.18533 59.275 4.492C59.275 4.79867 59.183 5.12067 58.999 5.458C58.6004 6.194 58.125 7.17533 57.573 8.402C57.0517 9.598 56.515 10.9167 55.963 12.358C55.4417 13.7993 54.951 15.2253 54.491 16.636C54.031 18.0467 53.6477 19.2887 53.341 20.362C53.157 21.0367 53.0037 21.8953 52.881 22.938C52.789 23.9807 52.7124 25.054 52.651 26.158C52.6203 27.2313 52.6203 28.1973 52.651 29.056C52.6817 29.884 52.7277 30.4207 52.789 30.666C52.973 31.2793 52.973 31.7393 52.789 32.046C52.605 32.3527 52.3443 32.552 52.007 32.644C51.6697 32.7667 51.3323 32.8433 50.995 32.874ZM43.405 27.308C43.8343 27.1547 44.2177 26.9707 44.555 26.756C44.8923 26.5413 45.291 26.2653 45.751 25.928C46.671 25.2227 47.3303 24.6093 47.729 24.088C48.1583 23.5667 48.4957 22.9227 48.741 22.156C48.8943 21.696 48.8943 21.2973 48.741 20.96C48.6183 20.6227 48.3883 20.3007 48.051 19.994C47.7137 19.718 47.2843 19.6107 46.763 19.672C46.2417 19.7027 45.6437 20.0247 44.969 20.638C44.233 21.3127 43.6043 22.0947 43.083 22.984C42.5617 23.8733 42.1323 25.146 41.795 26.802C41.7337 27.1087 41.841 27.3233 42.117 27.446C42.393 27.5687 42.8223 27.5227 43.405 27.308ZM60.9468 31.632C60.2722 31.632 59.7662 31.6013 59.4288 31.54C59.1222 31.4787 58.8922 31.3867 58.7388 31.264C58.5855 31.1413 58.3862 30.9727 58.1408 30.758C58.0182 30.5127 57.8035 30.206 57.4968 29.838C57.1902 29.4393 56.9755 29.1787 56.8528 29.056C56.7302 28.596 56.6842 27.9673 56.7148 27.17C56.7762 26.3727 56.9142 25.514 57.1288 24.594C57.3435 23.674 57.6042 22.846 57.9108 22.11C58.0335 21.8647 58.1408 21.6193 58.2328 21.374C58.3248 21.1287 58.3708 21.006 58.3708 21.006C58.3708 20.8527 58.5548 20.4847 58.9228 19.902C59.3215 19.3193 59.7508 18.706 60.2108 18.062C60.7015 17.418 61.1002 16.958 61.4068 16.682C61.6215 16.4367 61.9435 16.176 62.3728 15.9C62.8328 15.624 63.2315 15.4247 63.5688 15.302C63.9062 15.1793 64.3662 15.026 64.9488 14.842C65.5315 14.6273 66.0528 14.52 66.5128 14.52C66.9422 14.52 67.4022 14.612 67.8928 14.796C68.3835 14.98 68.7975 15.302 69.1348 15.762C69.6868 16.314 70.0395 16.9733 70.1928 17.74C70.3462 18.5067 70.3615 19.166 70.2388 19.718C70.0855 20.3313 69.7788 20.8373 69.3188 21.236C68.8588 21.604 68.3682 21.8033 67.8468 21.834C67.3255 21.834 66.8655 21.6193 66.4668 21.19C66.3442 20.9447 66.2828 20.7453 66.2828 20.592C66.2828 20.408 66.3442 20.1473 66.4668 19.81C66.5895 19.3807 66.6508 18.9973 66.6508 18.66C66.6508 18.3227 66.5128 18.154 66.2368 18.154C65.8382 18.154 65.5162 18.2767 65.2708 18.522C65.0255 18.7367 64.6575 19.1047 64.1668 19.626C63.9522 19.8713 63.6762 20.224 63.3388 20.684C63.0015 21.144 62.6642 21.65 62.3268 22.202C62.0202 22.7233 61.7442 23.26 61.4988 23.812C61.1615 24.824 60.9468 25.4833 60.8548 25.79C60.7935 26.066 60.7628 26.204 60.7628 26.204C60.7628 26.3267 60.7475 26.4493 60.7168 26.572C60.6862 26.664 60.6708 26.7713 60.6708 26.894C60.6708 27.262 60.8855 27.5533 61.3148 27.768C61.6522 27.9827 61.9282 28.09 62.1428 28.09C62.3882 28.0593 62.8482 27.8907 63.5228 27.584C64.0135 27.3387 64.4735 27.0167 64.9028 26.618C65.3628 26.2193 65.8382 25.8667 66.3288 25.56C66.6662 25.3453 66.9268 25.1613 67.1108 25.008C67.3255 24.8547 67.4328 24.8393 67.4328 24.962C67.4328 25.0847 67.4788 25.146 67.5708 25.146C67.6628 25.146 67.7702 25.0847 67.8928 24.962C68.0768 24.7167 68.3068 24.6247 68.5828 24.686C68.8588 24.7167 69.1042 24.7933 69.3188 24.916C69.5642 25.0387 69.6868 25.146 69.6868 25.238C69.6255 25.514 69.6868 25.744 69.8708 25.928C69.8708 26.0507 69.8248 26.2193 69.7328 26.434C69.6715 26.618 69.5795 26.7713 69.4568 26.894C69.3035 27.1087 69.0735 27.4153 68.7668 27.814C68.4908 28.2127 68.2302 28.5653 67.9848 28.872C67.7395 29.1787 67.6168 29.332 67.6168 29.332C67.4942 29.3013 67.3715 29.332 67.2488 29.424C67.1568 29.516 67.0495 29.6233 66.9268 29.746C66.6815 29.9607 66.4515 30.1293 66.2368 30.252C66.0222 30.344 65.8535 30.39 65.7308 30.39C65.5162 30.5127 65.3475 30.5893 65.2248 30.62C65.1328 30.6507 65.0868 30.7273 65.0868 30.85C64.7802 31.1567 64.2282 31.3713 63.4308 31.494C62.6335 31.586 61.8055 31.632 60.9468 31.632ZM77.569 31.356C77.3237 31.4173 77.0017 31.448 76.603 31.448C76.2043 31.4173 75.8517 31.3713 75.545 31.31C75.269 31.218 75.131 31.126 75.131 31.034C75.131 30.8807 75.0543 30.804 74.901 30.804C74.901 30.804 74.7323 30.6813 74.395 30.436C74.0577 30.16 73.751 29.9607 73.475 29.838C73.199 29.4087 73.015 28.918 72.923 28.366C72.8617 27.7833 73.0457 26.7713 73.475 25.33C73.5057 24.3487 73.7817 23.3213 74.303 22.248C74.8243 21.144 75.4837 20.0707 76.281 19.028C77.0783 17.9853 77.9063 17.0653 78.765 16.268C79.6237 15.44 80.3903 14.8267 81.065 14.428C81.4943 13.9987 82.0617 13.7687 82.767 13.738C83.503 13.7073 84.147 13.8453 84.699 14.152C85.0057 14.3053 85.343 14.612 85.711 15.072C86.079 15.532 86.4317 16.0227 86.769 16.544C87.1063 17.0347 87.367 17.4793 87.551 17.878C87.643 18.2153 87.7197 18.522 87.781 18.798C87.873 19.0433 87.9343 19.35 87.965 19.718C87.9957 20.086 87.965 20.638 87.873 21.374C87.7197 21.926 87.5817 22.4933 87.459 23.076C87.367 23.628 87.321 24.1953 87.321 24.778C87.2597 25.3607 87.321 25.7747 87.505 26.02C87.7197 26.2653 88.0263 26.2807 88.425 26.066C88.793 25.882 89.1763 25.8667 89.575 26.02C89.9737 26.1427 90.2497 26.388 90.403 26.756C90.587 27.0933 90.541 27.538 90.265 28.09C90.081 28.4887 89.7897 28.872 89.391 29.24C88.9923 29.608 88.5477 29.9147 88.057 30.16C87.5663 30.3747 87.091 30.482 86.631 30.482C86.2937 30.482 85.9563 30.3593 85.619 30.114C85.2817 29.838 84.975 29.47 84.699 29.01C84.423 28.55 84.193 28.044 84.009 27.492L83.733 26.434L82.077 27.952C81.6783 28.3813 81.2797 28.78 80.881 29.148C80.513 29.4853 80.283 29.7307 80.191 29.884C80.0377 30.16 79.731 30.4053 79.271 30.62C78.8417 30.8347 78.2743 31.08 77.569 31.356ZM78.811 26.94C79.3323 26.6333 79.777 26.2653 80.145 25.836C80.5437 25.4067 80.927 24.9313 81.295 24.41C81.663 23.858 82.0617 23.2753 82.491 22.662C83.0123 21.9567 83.3803 21.3893 83.595 20.96C83.8403 20.5307 84.0243 20.0707 84.147 19.58C84.0243 19.2427 83.8557 18.89 83.641 18.522C83.4263 18.1233 83.2117 17.9087 82.997 17.878C82.5677 17.878 82.0463 18.1387 81.433 18.66C80.8503 19.1813 80.2063 19.9327 79.501 20.914C79.3783 21.0673 79.225 21.3127 79.041 21.65C78.857 21.9873 78.673 22.3093 78.489 22.616C78.3357 22.892 78.2283 23.076 78.167 23.168C78.075 23.2907 77.937 23.582 77.753 24.042C77.5997 24.4713 77.4617 24.916 77.339 25.376C77.2163 25.8053 77.155 26.112 77.155 26.296C77.155 26.48 77.1703 26.6793 77.201 26.894C77.2623 27.1087 77.4157 27.2467 77.661 27.308C77.9063 27.3693 78.2897 27.2467 78.811 26.94ZM96.8962 32.322C95.2709 32.322 94.0749 31.8007 93.3082 30.758C93.0935 30.2673 92.9862 29.7767 92.9862 29.286C93.0169 28.7647 93.1395 28.3967 93.3542 28.182C93.5689 27.9367 93.8295 27.9827 94.1362 28.32C94.5349 28.5653 95.1022 28.688 95.8382 28.688C96.2062 28.688 96.5282 28.688 96.8042 28.688C97.1109 28.6573 97.4635 28.6267 97.8622 28.596C98.5675 28.5347 99.0122 28.32 99.1962 27.952C99.4109 27.584 99.3649 27.2773 99.0582 27.032H99.1042C98.2762 26.8173 97.4635 26.5107 96.6662 26.112C95.8689 25.7133 95.1942 25.2687 94.6422 24.778C94.0902 24.2567 93.7682 23.766 93.6762 23.306C93.4309 22.294 93.4922 21.2513 93.8602 20.178C94.2282 19.1047 94.7649 18.1693 95.4702 17.372C95.7462 17.188 96.1295 16.9273 96.6202 16.59C97.1109 16.222 97.4635 16.0227 97.6782 15.992V16.038C98.2609 15.4247 98.9202 14.934 99.6562 14.566C100.392 14.1673 101.251 13.7993 102.232 13.462L102.968 13.37C103.336 13.3087 103.658 13.278 103.934 13.278C103.904 13.278 103.98 13.3087 104.164 13.37C104.348 13.4313 104.502 13.4773 104.624 13.508C104.808 13.6 104.992 13.646 105.176 13.646C105.606 13.7073 106.02 13.9373 106.418 14.336C106.848 14.704 107.185 15.1487 107.43 15.67C107.706 16.1607 107.814 16.6207 107.752 17.05C107.66 17.7553 107.4 18.4607 106.97 19.166C106.541 19.8407 106.081 20.224 105.59 20.316C105.652 20.2853 105.59 20.224 105.406 20.132C105.222 20.04 105.054 19.948 104.9 19.856L104.716 19.948C104.716 19.948 104.701 19.902 104.67 19.81C104.67 19.718 104.64 19.6107 104.578 19.488C104.456 19.2733 104.364 19.0433 104.302 18.798C104.272 18.5527 104.272 18.2767 104.302 17.97C104.364 17.6327 104.379 17.4333 104.348 17.372C104.318 17.3107 104.134 17.2647 103.796 17.234C103.398 17.142 102.892 17.188 102.278 17.372C101.665 17.5253 101.098 17.8013 100.576 18.2C99.9629 18.5987 99.5029 18.9207 99.1962 19.166C98.9202 19.4113 98.7055 19.6567 98.5522 19.902C98.3989 20.1167 98.2302 20.4387 98.0462 20.868C97.9235 21.0827 97.8162 21.282 97.7242 21.466C97.6322 21.6193 97.5862 21.7727 97.5862 21.926C97.5862 22.2327 97.8469 22.5547 98.3682 22.892C98.8895 23.1987 99.6715 23.5667 100.714 23.996C101.542 24.3333 102.079 24.7933 102.324 25.376C102.6 25.9587 102.846 26.5107 103.06 27.032C103.122 27.1547 103.183 27.3847 103.244 27.722C103.336 28.0287 103.352 28.2127 103.29 28.274C103.352 28.3353 103.382 28.3967 103.382 28.458V28.412C103.628 28.872 103.582 29.3627 103.244 29.884C102.938 30.3747 102.447 30.8347 101.772 31.264C101.098 31.6627 100.331 31.954 99.4722 32.138H99.5182C99.0582 32.1993 98.5982 32.2453 98.1382 32.276C97.7089 32.3067 97.2949 32.322 96.8962 32.322ZM111.69 32.046C111.353 31.9847 110.985 31.7853 110.586 31.448C110.188 31.08 109.82 30.6813 109.482 30.252C109.176 29.792 108.976 29.4087 108.884 29.102C108.884 29.0407 108.838 28.964 108.746 28.872C108.685 28.78 108.654 28.734 108.654 28.734C108.532 28.642 108.455 28.2433 108.424 27.538C108.424 26.802 108.47 25.9893 108.562 25.1C108.654 24.2107 108.762 23.5053 108.884 22.984C109.038 22.4933 109.268 21.834 109.574 21.006C109.881 20.1473 110.142 19.3807 110.356 18.706L111.598 16.038L109.758 15.532C109.544 15.4707 109.36 15.348 109.206 15.164C109.084 14.98 109.022 14.8267 109.022 14.704C109.022 14.4587 109.16 14.106 109.436 13.646C109.712 13.186 109.912 12.956 110.034 12.956C110.188 12.9867 110.464 13.002 110.862 13.002C111.292 13.002 111.706 12.9867 112.104 12.956C112.503 12.9253 112.748 12.8947 112.84 12.864C112.963 12.8027 113.086 12.726 113.208 12.634C113.331 12.5113 113.423 12.3427 113.484 12.128C113.638 11.7907 113.776 11.53 113.898 11.346C114.021 11.162 114.19 10.886 114.404 10.518C114.619 10.1193 114.788 9.782 114.91 9.506C115.064 9.23 115.294 8.84667 115.6 8.356C115.754 8.14133 115.922 7.88067 116.106 7.574C116.29 7.26733 116.52 7.00667 116.796 6.792C117.072 6.54666 117.517 6.378 118.13 6.286C118.774 6.16333 119.326 6.30133 119.786 6.7C120.032 7.00667 120.17 7.298 120.2 7.574C120.231 7.85 120.108 8.20267 119.832 8.632C119.587 9.15333 119.296 9.62867 118.958 10.058C118.652 10.4567 118.36 10.9167 118.084 11.438C117.594 12.1127 117.502 12.496 117.808 12.588C118.115 12.68 118.974 12.6187 120.384 12.404C121.274 12.2507 121.918 12.3427 122.316 12.68C122.715 13.0173 122.945 13.4467 123.006 13.968C123.098 14.704 123.022 15.1487 122.776 15.302C122.531 15.4553 121.826 15.532 120.66 15.532C119.924 15.6547 119.296 15.7313 118.774 15.762C118.253 15.762 117.87 15.762 117.624 15.762C117.226 15.7927 116.965 15.808 116.842 15.808C116.72 15.808 116.536 15.8387 116.29 15.9C116.045 15.9613 115.861 16.0687 115.738 16.222C115.646 16.3447 115.539 16.5287 115.416 16.774C115.294 16.8967 115.11 17.2187 114.864 17.74C114.619 18.2613 114.312 18.8287 113.944 19.442C113.515 20.73 113.147 21.972 112.84 23.168C112.564 24.3333 112.319 25.4987 112.104 26.664C112.012 27.2467 112.028 27.676 112.15 27.952C112.304 28.1973 112.702 28.3507 113.346 28.412C113.684 28.4427 114.174 28.4427 114.818 28.412C115.462 28.3507 115.999 28.2587 116.428 28.136C116.766 27.9827 117.118 27.8293 117.486 27.676C117.854 27.492 118.192 27.308 118.498 27.124C118.774 26.9707 119.05 26.8173 119.326 26.664C119.602 26.48 119.74 26.388 119.74 26.388C119.894 26.1427 120.108 26.1887 120.384 26.526C120.691 26.8327 120.906 27.17 121.028 27.538C121.028 27.906 120.952 28.3507 120.798 28.872C120.645 29.3627 120.078 29.884 119.096 30.436C117.716 31.2947 116.336 31.816 114.956 32C113.576 32.184 112.488 32.1993 111.69 32.046ZM126.735 31.586C125.539 31.0953 124.711 30.298 124.251 29.194C123.791 28.09 123.668 26.618 123.883 24.778C123.944 23.8273 123.913 23.1987 123.791 22.892C123.668 22.5547 123.438 22.2327 123.101 21.926C123.009 21.8033 122.794 21.604 122.457 21.328C122.119 21.0213 121.966 20.7913 121.997 20.638C121.966 20.4233 122.012 20.1627 122.135 19.856C122.257 19.5187 122.365 19.3347 122.457 19.304C122.671 19.212 122.886 19.1047 123.101 18.982C123.346 18.8593 123.53 18.8287 123.653 18.89C123.775 18.89 123.959 18.9667 124.205 19.12C124.481 19.2733 124.619 19.4113 124.619 19.534C124.741 19.7487 124.925 19.6567 125.171 19.258C125.447 18.8593 125.738 18.3533 126.045 17.74C126.351 17.2493 126.735 16.7893 127.195 16.36C127.655 15.9307 128.115 15.5473 128.575 15.21C129.065 14.842 129.479 14.566 129.817 14.382C129.97 14.3207 130.261 14.2287 130.691 14.106C131.151 13.9833 131.626 13.8913 132.117 13.83C132.607 13.738 132.975 13.7073 133.221 13.738C133.773 13.7687 134.355 13.9987 134.969 14.428C135.582 14.8573 136.057 15.256 136.395 15.624C136.793 15.9 137.054 16.3293 137.177 16.912C137.33 17.464 137.391 18.0467 137.361 18.66C137.33 19.2733 137.207 19.7947 136.993 20.224C136.901 20.5307 136.579 20.96 136.027 21.512C135.475 22.064 134.861 22.6007 134.187 23.122C133.543 23.6127 132.991 23.95 132.531 24.134C132.132 24.226 131.657 24.3027 131.105 24.364C130.553 24.3947 130.031 24.3947 129.541 24.364C129.081 24.3027 128.759 24.226 128.575 24.134C128.36 24.0113 128.176 24.0573 128.023 24.272C127.9 24.456 127.793 24.9773 127.701 25.836C127.67 26.1733 127.67 26.4647 127.701 26.71C127.762 26.9553 127.823 27.1393 127.885 27.262C128.099 27.63 128.314 27.906 128.529 28.09C128.743 28.2433 129.142 28.2893 129.725 28.228C130.307 28.1667 130.89 27.814 131.473 27.17C132.086 26.4953 132.638 25.9587 133.129 25.56C133.251 25.3453 133.512 25.2073 133.911 25.146C134.34 25.054 134.846 25.0847 135.429 25.238C135.766 25.4527 135.919 25.79 135.889 26.25C135.889 26.71 135.643 27.3847 135.153 28.274C135.061 28.4887 134.8 28.8107 134.371 29.24C133.972 29.6387 133.527 30.0527 133.037 30.482C132.577 30.8807 132.193 31.172 131.887 31.356C130.967 31.8467 130.062 32.0767 129.173 32.046C128.283 32.0153 127.471 31.862 126.735 31.586ZM130.139 21.236C130.599 21.1133 130.982 20.9907 131.289 20.868C131.626 20.7453 131.948 20.546 132.255 20.27C132.561 19.994 132.914 19.58 133.313 19.028C133.435 18.6907 133.497 18.3993 133.497 18.154C133.527 17.9087 133.512 17.7553 133.451 17.694C133.205 17.4487 132.929 17.372 132.623 17.464C132.347 17.5253 132.04 17.6787 131.703 17.924C131.488 18.016 131.181 18.2153 130.783 18.522C130.415 18.798 130.047 19.12 129.679 19.488C129.341 19.8253 129.065 20.1473 128.851 20.454C128.667 20.73 128.636 20.8987 128.759 20.96C128.697 21.0827 128.866 21.1593 129.265 21.19C129.694 21.2207 129.985 21.236 130.139 21.236ZM142.696 31.034C142.604 31.0647 142.405 31.0493 142.098 30.988C141.822 30.9267 141.531 30.85 141.224 30.758C140.948 30.666 140.779 30.5893 140.718 30.528C140.595 30.4053 140.427 30.1907 140.212 29.884C139.997 29.5467 139.875 29.102 139.844 28.55C139.844 27.998 140.105 27.3387 140.626 26.572C140.779 26.2653 140.963 25.8053 141.178 25.192C141.393 24.5787 141.607 23.9347 141.822 23.26C142.067 22.5547 142.282 21.926 142.466 21.374C142.681 20.822 142.834 20.4387 142.926 20.224C142.987 19.7027 142.957 19.3347 142.834 19.12C142.742 18.8747 142.481 18.7367 142.052 18.706C141.745 18.706 141.5 18.5987 141.316 18.384C141.163 18.1693 141.086 17.786 141.086 17.234C141.147 16.8047 141.255 16.4367 141.408 16.13C141.592 15.7927 141.837 15.5167 142.144 15.302C142.451 15.1487 142.834 15.0413 143.294 14.98C143.785 14.9187 144.26 14.9033 144.72 14.934C145.18 14.9647 145.502 15.072 145.686 15.256C145.901 15.3787 146.069 15.6547 146.192 16.084C146.345 16.4827 146.468 16.8967 146.56 17.326C146.652 17.7553 146.713 18.0773 146.744 18.292C147.051 18.0467 147.388 17.7093 147.756 17.28C148.155 16.82 148.553 16.3907 148.952 15.992C149.443 15.6547 150.025 15.3173 150.7 14.98C151.375 14.612 151.865 14.428 152.172 14.428C152.509 14.428 152.923 14.5967 153.414 14.934C153.905 15.2407 154.211 15.5167 154.334 15.762C154.641 16.2833 154.855 16.8353 154.978 17.418C155.131 17.97 155.039 18.4607 154.702 18.89C154.395 19.2887 153.966 19.6873 153.414 20.086C152.862 20.454 152.172 20.5613 151.344 20.408C151.16 20.3467 150.961 20.1167 150.746 19.718C150.562 19.3193 150.455 19.028 150.424 18.844C150.424 18.752 150.286 18.844 150.01 19.12C149.765 19.3653 149.458 19.672 149.09 20.04C148.753 20.408 148.431 20.7453 148.124 21.052C147.603 21.696 147.051 22.57 146.468 23.674C145.885 24.778 145.195 26.112 144.398 27.676C144.03 28.4427 143.723 29.1787 143.478 29.884C143.233 30.5587 142.972 30.942 142.696 31.034Z" fill="white"/>
</svg>
